<?xml version="1.0" encoding="utf-8"?>
<!-- Svg Vector Icons : http://www.onlinewebfonts.com/icon -->
<!DOCTYPE svg PUBLIC "-//W3C//DTD SVG 1.1//EN" "http://www.w3.org/Graphics/SVG/1.1/DTD/svg11.dtd">
<svg version="1.1" xmlns="http://www.w3.org/2000/svg" xmlns:xlink="http://www.w3.org/1999/xlink" x="0px" y="0px" viewBox="0 0 1000 1000" enable-background="new 0 0 1000 1000" xml:space="preserve">
<metadata> Svg Vector Icons : http://www.onlinewebfonts.com/icon </metadata>
<g><g transform="translate(0.000000,511.000000) scale(0.100000,-0.100000)"><path d="M4429.2,4978.5C3566.3,4873.3,2756,4547,2048.6,4019.2c-267.2-199.3-757.8-689.9-957.1-957.1C189.2,1853.2-117.4,324.5,254.9-1114.3c488.4-1901,2071.8-3328.9,4029.8-3635.5c348.2-52.5,1092.8-52.5,1441.1,0c1088.5,170.8,2058.7,676.7,2816.4,1465.2c709.6,738,1158.6,1649.1,1318.4,2669.7c52.5,348.2,52.5,1092.9,0,1441.1c-378.9,2426.6-2455.1,4202.8-4888.3,4183.1C4803.7,5006.9,4558.4,4993.8,4429.2,4978.5z M5423.5,4507.6c2111.2-210.2,3769.1-1868.1,3983.7-3983.8c116.1-1158.6-258.4-2352.1-1027.2-3267.6c-919.8-1099.4-2374-1695.1-3793.2-1552.8c-1695.1,170.8-3142.8,1285.6-3727.5,2869C329.4,7,568.1,1566.3,1507.6,2810.3c170.8,225.6,567.2,622,792.8,792.8C3218.1,4297.4,4324.1,4617.1,5423.5,4507.6z"/><path d="M4654.8,2954.8c-799.4-87.6-1498-398.6-2030.2-906.7c-455.5-435.8-744.6-961.5-838.8-1526.5c-35-205.9-35-646.1-2.2-830.1c78.8-422.7,254-825.7,503.7-1158.5l151.1-199.3l-21.9-116.1c-39.4-212.4-116.1-341.6-348.2-569.4C1950-2470,1860.2-2568.6,1869-2572.9c8.8-6.6,129.2-48.2,267.2-94.2c219-72.3,278.1-81,459.9-81c286.9,0,562.9,78.8,812.5,238.7c102.9,63.5,87.6,65.7,440.2-54.8c392-135.8,696.4-184,1156.4-184c289.1,0,444.6,11,635.1,46c1618.5,291.3,2735.4,1596.6,2604,3035.5c-102.9,1110.4-926.4,2067.4-2111.2,2455.1C5697.2,2930.7,5084,3000.8,4654.8,2954.8z M5614,2424.8C6636.8,2227.7,7442.7,1540,7703.3,642.1c43.8-151.1,50.4-223.4,50.4-536.6c0-311-6.6-385.5-50.4-536.6c-265-922-1092.9-1605.3-2183.5-1800.3c-260.6-46-768.7-46-1029.3,0c-291.3,52.6-565,138-797.2,247.5c-111.7,52.6-214.6,96.4-225.6,96.4s-70.1-39.4-131.4-89.8c-127-98.6-357-221.2-484-256.2c-76.7-21.9-83.2-19.7-70.1,13.1c92,221.2,142.4,449,142.4,648.3c0,96.4-8.8,116.1-111.7,227.8c-282.5,308.8-484,714-545.3,1108.2c-43.8,258.4-17.5,681.1,52.6,919.8C2607,1645.2,3544.4,2350.4,4698.6,2473C4932.9,2497.1,5351.2,2475.2,5614,2424.8z"/><path d="M6233.8,861.1c-219-61.3-357-181.8-459.9-405.2c-48.2-102.9-57-148.9-57-328.5c2.2-249.7,50.4-381.1,192.7-521.2c148.9-144.6,271.6-190.5,530-190.5c240.9,0,335.1,30.6,499.3,164.3l81,67.9v306.6v304.4h-306.6h-306.6V138.4V17.9H6593h186.2v-127c0-124.8-2.2-129.2-81-173c-118.3-63.5-232.1-78.8-374.5-48.2c-365.8,74.5-479.6,547.5-201.5,832.2c78.8,81,122.6,107.3,214.6,127c140.2,28.5,297.9,0,407.4-74.5l74.5-50.4l81,83.2l78.8,81l-81,67.9C6737.5,869.9,6452.8,922.4,6233.8,861.1z"/><path d="M3016.6,145l6.6-707.4h525.6h525.6l6.6,124.8l6.6,127l-400.8,4.4l-400.8,6.6l-6.6,159.9l-6.6,157.7h385.5h383.3v120.5v120.4l-376.7,4.4l-378.9,6.6l-6.6,159.9l-6.6,157.7h407.4h405.2v131.4v131.4h-536.6h-536.6L3016.6,145z"/><path d="M4348.2,138.4v-711.8h131.4H4611l4.4,473.1l6.6,475.3L4992-100.3c370.1-473.1,370.1-475.3,449-468.7l78.8,6.6l6.6,707.4l4.4,705.2h-142.4h-142.4l-4.4-427.1L5235.1-4l-337.3,427.1l-337.3,427.1h-105.1h-107.3V138.4z"/></g></g>
</svg>